<svg width="914" height="400" fill="none" xmlns="http://www.w3.org/2000/svg">
  <path fill="#fff" d="M0 0h914v400H0z"/>
  <path d="M429.532 212l-7.971-9.174a5.14 5.14 0 01-.423-.56h-.055V212h-1.818v-19.605h1.818v9.228h.055c.063-.1.132-.196.205-.287l.232-.287 7.629-8.654h2.311l-8.504 9.46L432.075 212h-2.543zm17.378 0l-2.161-5.797h-8.408L434.236 212h-2.024l7.465-19.605h1.832L448.933 212h-2.023zm-5.975-16.174a15.017 15.017 0 01-.205-.601 6.653 6.653 0 01-.164-.78h-.055a6.56 6.56 0 01-.191.78 8.047 8.047 0 01-.192.601l-3.172 8.723h7.178l-3.199-8.723zm18.143 16.516c-1.413 0-2.684-.255-3.814-.766a8.61 8.61 0 01-2.885-2.119c-.784-.893-1.39-1.941-1.818-3.145-.42-1.212-.629-2.511-.629-3.896 0-1.531.209-2.93.629-4.197.428-1.276 1.048-2.365 1.859-3.268a8.278 8.278 0 012.98-2.119c1.176-.51 2.516-.766 4.02-.766 1.385 0 2.629.251 3.732.752a8.08 8.08 0 012.817 2.065c.774.875 1.367 1.914 1.777 3.117.419 1.203.629 2.511.629 3.924 0 1.486-.205 2.866-.615 4.142-.401 1.267-.998 2.366-1.791 3.295a8.22 8.22 0 01-2.912 2.188c-1.149.528-2.475.793-3.979.793zm.151-18.621c-1.185 0-2.238.228-3.159.683a6.797 6.797 0 00-2.31 1.832c-.629.766-1.108 1.668-1.436 2.707a11.382 11.382 0 00-.492 3.295 11.248 11.248 0 00.424 3.2 8.384 8.384 0 001.34 2.693 6.655 6.655 0 002.269 1.859c.912.465 1.978.698 3.199.698 1.222 0 2.293-.21 3.213-.629a6.524 6.524 0 002.325-1.764c.619-.757 1.084-1.654 1.394-2.693.319-1.04.479-2.174.479-3.405 0-1.148-.142-2.237-.424-3.267-.274-1.03-.707-1.928-1.299-2.694a6.15 6.15 0 00-2.242-1.832c-.912-.455-2.005-.683-3.281-.683zm11.758 15.408c.328.246.688.469 1.08.67.401.191.807.355 1.217.492.419.128.838.228 1.258.301.419.064.82.096 1.203.096 1.485 0 2.597-.288 3.336-.862.738-.574 1.107-1.399 1.107-2.474 0-.52-.087-.971-.26-1.354a3.343 3.343 0 00-.806-1.094 8.108 8.108 0 00-1.381-.998 60.17 60.17 0 00-1.969-1.135 27.852 27.852 0 01-2.16-1.285 8.599 8.599 0 01-1.463-1.244 4.418 4.418 0 01-.834-1.381c-.173-.492-.26-1.052-.26-1.681 0-.793.169-1.504.506-2.133a4.909 4.909 0 011.367-1.6 6.264 6.264 0 012.01-1.025 8.42 8.42 0 012.475-.356c1.54 0 2.83.215 3.869.643v2.01c-1.158-.666-2.516-.998-4.074-.998-.584 0-1.135.073-1.655.218-.51.137-.961.342-1.353.616a3.084 3.084 0 00-.916 1.025c-.219.401-.328.871-.328 1.408 0 .511.073.953.218 1.326.155.365.397.711.725 1.04.337.328.775.656 1.312.984.547.319 1.213.688 1.997 1.107.82.438 1.535.866 2.146 1.285a7.842 7.842 0 011.518 1.299c.41.447.715.925.916 1.436.2.501.3 1.062.3 1.681 0 .857-.159 1.614-.478 2.27a4.424 4.424 0 01-1.34 1.613c-.574.429-1.258.752-2.051.971-.793.219-1.663.328-2.611.328-.31 0-.679-.027-1.107-.082a10.743 10.743 0 01-1.299-.219c-.438-.091-.857-.2-1.258-.328a4.767 4.767 0 01-.957-.437v-2.133zM497.183 198l-5.414 14h-3.432l-5.154-14h3.445l3.104 9.789c.237.72.382 1.349.437 1.887h.041c.082-.675.21-1.285.383-1.832l3.254-9.844h3.336z" fill="#333"/>
</svg>
